<svg width="31" height="28" viewBox="0 0 31 28" fill="none" xmlns="http://www.w3.org/2000/svg">
<rect width="30.24" height="28" rx="14" fill="#FE8546"/>
<path d="M19.086 11.959H22.3998C22.3998 9.736 21.1227 7.07566 17.0467 6.77202C12.909 6.46377 10.1641 7.51302 8.63468 10.23C7.10522 12.947 7.36013 19.6159 13.2231 20.1099C17.9134 20.5051 19.4259 18.4633 19.5958 17.3929V20.1099H22.3998V13.194H14.7525V15.417H19.3409C18.8237 17.3209 16.7802 17.8147 13.7329 17.3929C10.7049 16.9739 10.5241 13.0015 11.5437 11.2725C12.5633 9.54353 14.2258 9.19224 16.5369 9.489C18.1851 9.70064 19.171 11.1357 19.086 11.959Z" fill="#FDFEFE"/>
</svg>
