<svg id="visual" viewBox="0 0 1920 150" width="1920" height="150" xmlns="http://www.w3.org/2000/svg" xmlns:xlink="http://www.w3.org/1999/xlink" version="1.1"><path d="M0 104L32 98C64 92 128 80 192 78C256 76 320 84 384 91.5C448 99 512 106 576 100C640 94 704 75 768 73.2C832 71.3 896 86.7 960 85.7C1024 84.7 1088 67.3 1152 67.7C1216 68 1280 86 1344 83.5C1408 81 1472 58 1536 62.3C1600 66.7 1664 98.3 1728 102.2C1792 106 1856 82 1888 70L1920 58L1920 151L1888 151C1856 151 1792 151 1728 151C1664 151 1600 151 1536 151C1472 151 1408 151 1344 151C1280 151 1216 151 1152 151C1088 151 1024 151 960 151C896 151 832 151 768 151C704 151 640 151 576 151C512 151 448 151 384 151C320 151 256 151 192 151C128 151 64 151 32 151L0 151Z" fill="#FFFFFF" stroke-linecap="round" stroke-linejoin="miter"></path></svg>