<svg width="44" height="44" viewBox="0 0 44 44" fill="none" xmlns="http://www.w3.org/2000/svg">
<g clip-path="url(#clip0_1237_8922)">
<path d="M12.874 31.8311C16.4768 30.7718 25.3238 29.2889 31.8891 31.8311M31.8891 31.8311C32.8036 28.4343 33.1324 24.8645 33.1324 22.2978C36.2977 22.9334 42.3751 23.3147 41.3622 19.7556C40.3493 16.1965 35.0316 15.3067 32.4993 15.3067C31.8663 12.7645 28.701 8.31567 21.1042 8.31567C15.0268 8.31567 12.2413 12.9764 11.6082 15.3067C9.28699 15.7304 4.26468 17.3405 2.74533 20.3911C1.22597 23.4418 8.02086 23.3571 11.6082 22.9334C11.6082 29.2889 13.7606 41.9999 22.3703 41.9999C27.6151 41.9999 30.4637 37.1256 31.8891 31.8311Z" stroke="#E8792A" stroke-width="4"/>
<path d="M28.8438 10.0029C29.7749 9.79973 32.196 8.90573 34.4309 6.9552C37.2244 4.51703 38.6212 1.46932 39.3196 2.07886C40.018 2.6884 42.8864 10.1983 35.2041 15.6842" stroke="#E8792A" stroke-width="4"/>
<path d="M14.1055 10.9017C13.2799 10.7025 11.1333 9.82567 9.15191 7.91264C6.67513 5.52136 5.43674 2.53226 4.81754 3.13008C4.19835 3.7279 1.10237 10.3039 7.91352 15.6843" stroke="#E8792A" stroke-width="4"/>
<circle cx="18.3162" cy="23.0525" r="2.10526" fill="#E8792A"/>
<circle cx="25.6834" cy="23.0525" r="2.10526" fill="#E8792A"/>
</g>
<defs>
<clipPath id="clip0_1237_8922">
<rect width="44" height="44" fill="white"/>
</clipPath>
</defs>
</svg>
