<svg width="44" height="44" viewBox="0 0 44 44" fill="none" xmlns="http://www.w3.org/2000/svg">
<path d="M24 9.29735C18.316 3.61332 10.4168 2.2968 6.35683 6.35682M6.35683 6.35682C2.2968 10.4168 3.61332 18.316 9.29735 24M6.35683 6.35682C6.84691 8.80727 9.44498 14.1486 15.9141 15.9129" stroke="#E8792A" stroke-width="4" stroke-linecap="round" stroke-linejoin="round"/>
<path d="M16.4223 37.5777C20.5951 41.7505 28.7136 40.3974 34.5555 34.5555C40.3974 28.7136 41.7505 20.5951 37.5777 16.4223M16.4223 37.5777C12.2495 33.4049 13.6026 25.2864 19.4445 19.4445C25.2864 13.6026 33.4049 12.2495 37.5777 16.4223M16.4223 37.5777C19.4445 36.5703 25.1657 35.7434 27.7562 26.2451C29.5695 19.5962 35.0592 16.926 37.5777 16.4223" stroke="#E8792A" stroke-width="4" stroke-linecap="round" stroke-linejoin="round"/>
</svg>
