<svg width="44" height="44" viewBox="0 0 44 44" fill="none" xmlns="http://www.w3.org/2000/svg">
<path d="M33.429 9.79577C29.4414 9.46777 26.5941 11.6933 25.3636 13.545C22.9756 16.8223 22.4953 21.8758 19.6666 27.7112C16.8378 33.5466 10.0759 35.0178 7.66829 35.3939C5.26069 35.77 2.23085 40.0913 14.4429 39.9677C27.2047 39.8386 35.9777 29.7268 38.2246 22.7377C40.4715 15.7485 38.1529 10.1843 33.429 9.79577Z" stroke="#E8792A" stroke-width="4" stroke-linecap="round"/>
<path d="M26.1719 12.2395C26.1719 12.2395 26.8274 16.6548 30.2766 18.6976C33.7258 20.7403 39.1642 19.2453 39.1642 19.2453" stroke="#E8792A" stroke-width="4"/>
<path d="M36.5082 9.45113C37.2753 8.04281 38.8741 4.67491 39.1324 2.46989" stroke="#E8792A" stroke-width="4" stroke-linecap="round"/>
</svg>
