<svg width="44" height="44" viewBox="0 0 44 44" fill="none" xmlns="http://www.w3.org/2000/svg">
<path d="M31 8H13C12.0681 8 11.6022 8 11.2346 7.84776C10.7446 7.64477 10.3552 7.25542 10.1522 6.76537C10 6.39782 10 5.93188 10 5C10 4.06812 10 3.60218 10.1522 3.23463C10.3552 2.74458 10.7446 2.35523 11.2346 2.15224C11.6022 2 12.0681 2 13 2H31C31.9319 2 32.3978 2 32.7654 2.15224C33.2554 2.35523 33.6448 2.74458 33.8478 3.23463C34 3.60218 34 4.06812 34 5C34 5.93188 34 6.39782 33.8478 6.76537C33.6448 7.25542 33.2554 7.64477 32.7654 7.84776C32.3978 8 31.9319 8 31 8Z" stroke="#E8792A" stroke-width="4" stroke-linecap="round"/>
<path d="M13 8L12.6356 8.43731C10.3416 11.1901 9.19457 12.5665 8.59728 14.2162C8 15.866 8 17.6576 8 21.241V30C8 35.6569 8 38.4853 9.75736 40.2426C11.5147 42 14.3431 42 20 42H24C29.6569 42 32.4853 42 34.2426 40.2426C36 38.4853 36 35.6569 36 30V21.241C36 17.6576 36 15.866 35.4027 14.2162C34.8054 12.5665 33.6584 11.1901 31.3644 8.43731L31 8" stroke="#E8792A" stroke-width="4" stroke-linecap="round"/>
<path d="M18 24.5882V20.8235L22 18L26 20.8235V24.5882M18 24.5882L22 27.4118M18 24.5882L14 27.4118L14 31.1765L18 34L22 31.1765M26 24.5882L22 27.4118M26 24.5882L30 27.4118V31.1765L26 34L22 31.1765M22 27.4118V31.1765" stroke="#E8792A" stroke-width="4" stroke-linecap="round" stroke-linejoin="round"/>
</svg>
