<svg id="visual" viewBox="0 0 1920 300" width="1920" height="300" xmlns="http://www.w3.org/2000/svg" xmlns:xlink="http://www.w3.org/1999/xlink" version="1.1"><path d="M0 206L24.7 193.5C49.3 181 98.7 156 147.8 153.2C197 150.3 246 169.7 295.2 172.5C344.3 175.3 393.7 161.7 443 160.8C492.3 160 541.7 172 590.8 181.3C640 190.7 689 197.3 738.2 188.7C787.3 180 836.7 156 886 150.2C935.3 144.3 984.7 156.7 1034 167.2C1083.3 177.7 1132.7 186.3 1181.8 186.5C1231 186.7 1280 178.3 1329.2 172.5C1378.3 166.7 1427.7 163.3 1477 159.5C1526.3 155.7 1575.7 151.3 1624.8 154.8C1674 158.3 1723 169.7 1772.2 168.2C1821.3 166.7 1870.7 152.3 1895.3 145.2L1920 138L1920 301L1895.3 301C1870.7 301 1821.3 301 1772.2 301C1723 301 1674 301 1624.8 301C1575.7 301 1526.3 301 1477 301C1427.7 301 1378.3 301 1329.2 301C1280 301 1231 301 1181.8 301C1132.7 301 1083.3 301 1034 301C984.7 301 935.3 301 886 301C836.7 301 787.3 301 738.2 301C689 301 640 301 590.8 301C541.7 301 492.3 301 443 301C393.7 301 344.3 301 295.2 301C246 301 197 301 147.8 301C98.7 301 49.3 301 24.7 301L0 301Z" fill="#fefdfd"></path><path d="M0 217L24.7 220.7C49.3 224.3 98.7 231.7 147.8 229.3C197 227 246 215 295.2 204.5C344.3 194 393.7 185 443 187.7C492.3 190.3 541.7 204.7 590.8 206C640 207.3 689 195.7 738.2 195.7C787.3 195.7 836.7 207.3 886 209.3C935.3 211.3 984.7 203.7 1034 204.5C1083.3 205.3 1132.7 214.7 1181.8 214.7C1231 214.7 1280 205.3 1329.2 202C1378.3 198.7 1427.7 201.3 1477 207.7C1526.3 214 1575.7 224 1624.8 224.7C1674 225.3 1723 216.7 1772.2 213.7C1821.3 210.7 1870.7 213.3 1895.3 214.7L1920 216L1920 301L1895.3 301C1870.7 301 1821.3 301 1772.2 301C1723 301 1674 301 1624.8 301C1575.7 301 1526.3 301 1477 301C1427.7 301 1378.3 301 1329.2 301C1280 301 1231 301 1181.8 301C1132.7 301 1083.3 301 1034 301C984.7 301 935.3 301 886 301C836.7 301 787.3 301 738.2 301C689 301 640 301 590.8 301C541.7 301 492.3 301 443 301C393.7 301 344.3 301 295.2 301C246 301 197 301 147.8 301C98.7 301 49.3 301 24.7 301L0 301Z" fill="#faf7f3"></path><path d="M0 222L24.7 223.5C49.3 225 98.7 228 147.8 232C197 236 246 241 295.2 247.7C344.3 254.3 393.7 262.7 443 263.2C492.3 263.7 541.7 256.3 590.8 254.7C640 253 689 257 738.2 258.8C787.3 260.7 836.7 260.3 886 257.5C935.3 254.7 984.7 249.3 1034 242.8C1083.3 236.3 1132.7 228.7 1181.8 230.3C1231 232 1280 243 1329.2 245.8C1378.3 248.7 1427.7 243.3 1477 243.2C1526.3 243 1575.7 248 1624.8 251.5C1674 255 1723 257 1772.2 259.7C1821.3 262.3 1870.7 265.7 1895.3 267.3L1920 269L1920 301L1895.3 301C1870.7 301 1821.3 301 1772.2 301C1723 301 1674 301 1624.8 301C1575.7 301 1526.3 301 1477 301C1427.7 301 1378.3 301 1329.2 301C1280 301 1231 301 1181.8 301C1132.7 301 1083.3 301 1034 301C984.7 301 935.3 301 886 301C836.7 301 787.3 301 738.2 301C689 301 640 301 590.8 301C541.7 301 492.3 301 443 301C393.7 301 344.3 301 295.2 301C246 301 197 301 147.8 301C98.7 301 49.3 301 24.7 301L0 301Z" fill="#ecf3ed"></path></svg>