<svg id="visual" viewBox="0 0 1920 120" width="1920" height="120" xmlns="http://www.w3.org/2000/svg" xmlns:xlink="http://www.w3.org/1999/xlink" version="1.1"><path d="M0 57L22.8 66.2C45.7 75.3 91.3 93.7 137 99.7C182.7 105.7 228.3 99.3 274 85.3C319.7 71.3 365.3 49.7 411.2 47.2C457 44.7 503 61.3 548.8 72C594.7 82.7 640.3 87.3 686 79.3C731.7 71.3 777.3 50.7 823 44.2C868.7 37.7 914.3 45.3 960 47.8C1005.7 50.3 1051.3 47.7 1097 43.8C1142.7 40 1188.3 35 1234 38C1279.7 41 1325.3 52 1371.2 61.2C1417 70.3 1463 77.7 1508.8 68.5C1554.7 59.3 1600.3 33.7 1646 29.5C1691.7 25.3 1737.3 42.7 1783 48.8C1828.7 55 1874.3 50 1897.2 47.5L1920 45L1920 0L1897.2 0C1874.3 0 1828.7 0 1783 0C1737.3 0 1691.7 0 1646 0C1600.3 0 1554.7 0 1508.8 0C1463 0 1417 0 1371.2 0C1325.3 0 1279.7 0 1234 0C1188.3 0 1142.7 0 1097 0C1051.3 0 1005.7 0 960 0C914.3 0 868.7 0 823 0C777.3 0 731.7 0 686 0C640.3 0 594.7 0 548.8 0C503 0 457 0 411.2 0C365.3 0 319.7 0 274 0C228.3 0 182.7 0 137 0C91.3 0 45.7 0 22.8 0L0 0Z" fill="#f6f6f1" stroke-linecap="round" stroke-linejoin="miter"></path></svg>