<svg id="visual" viewBox="0 0 1920 240" width="1920" height="240" xmlns="http://www.w3.org/2000/svg" xmlns:xlink="http://www.w3.org/1999/xlink" version="1.1"><path d="M0 30L29.2 35.5C58.3 41 116.7 52 174.8 50C233 48 291 33 349.2 32.3C407.3 31.7 465.7 45.3 523.8 48.5C582 51.7 640 44.3 698.2 45.5C756.3 46.7 814.7 56.3 872.8 61.5C931 66.7 989 67.3 1047.2 64.8C1105.3 62.3 1163.7 56.7 1221.8 54.3C1280 52 1338 53 1396.2 52.3C1454.3 51.7 1512.7 49.3 1570.8 54.2C1629 59 1687 71 1745.2 73.3C1803.3 75.7 1861.7 68.3 1890.8 64.7L1920 61L1920 0L1890.8 0C1861.7 0 1803.3 0 1745.2 0C1687 0 1629 0 1570.8 0C1512.7 0 1454.3 0 1396.2 0C1338 0 1280 0 1221.8 0C1163.7 0 1105.3 0 1047.2 0C989 0 931 0 872.8 0C814.7 0 756.3 0 698.2 0C640 0 582 0 523.8 0C465.7 0 407.3 0 349.2 0C291 0 233 0 174.8 0C116.7 0 58.3 0 29.2 0L0 0Z" fill="#ecf3ee"></path><path d="M0 140L29.2 147.7C58.3 155.3 116.7 170.7 174.8 170.7C233 170.7 291 155.3 349.2 147.7C407.3 140 465.7 140 523.8 138C582 136 640 132 698.2 127.2C756.3 122.3 814.7 116.7 872.8 114.3C931 112 989 113 1047.2 120.3C1105.3 127.7 1163.7 141.3 1221.8 140.8C1280 140.3 1338 125.7 1396.2 114C1454.3 102.3 1512.7 93.7 1570.8 105.7C1629 117.7 1687 150.3 1745.2 153.2C1803.3 156 1861.7 129 1890.8 115.5L1920 102L1920 59L1890.8 62.7C1861.7 66.3 1803.3 73.7 1745.2 71.3C1687 69 1629 57 1570.8 52.2C1512.7 47.3 1454.3 49.7 1396.2 50.3C1338 51 1280 50 1221.8 52.3C1163.7 54.7 1105.3 60.3 1047.2 62.8C989 65.3 931 64.7 872.8 59.5C814.7 54.3 756.3 44.7 698.2 43.5C640 42.3 582 49.7 523.8 46.5C465.7 43.3 407.3 29.7 349.2 30.3C291 31 233 46 174.8 48C116.7 50 58.3 39 29.2 33.5L0 28Z" fill="#eff4ee"></path><path d="M0 193L29.2 196.2C58.3 199.3 116.7 205.7 174.8 205.7C233 205.7 291 199.3 349.2 197.3C407.3 195.3 465.7 197.7 523.8 192.5C582 187.3 640 174.7 698.2 164.3C756.3 154 814.7 146 872.8 147.5C931 149 989 160 1047.2 169.5C1105.3 179 1163.7 187 1221.8 186.7C1280 186.3 1338 177.7 1396.2 168.2C1454.3 158.7 1512.7 148.3 1570.8 154C1629 159.7 1687 181.3 1745.2 184.2C1803.3 187 1861.7 171 1890.8 163L1920 155L1920 100L1890.8 113.5C1861.7 127 1803.3 154 1745.2 151.2C1687 148.3 1629 115.7 1570.8 103.7C1512.7 91.7 1454.3 100.3 1396.2 112C1338 123.7 1280 138.3 1221.8 138.8C1163.7 139.3 1105.3 125.7 1047.2 118.3C989 111 931 110 872.8 112.3C814.7 114.7 756.3 120.3 698.2 125.2C640 130 582 134 523.8 136C465.7 138 407.3 138 349.2 145.7C291 153.3 233 168.7 174.8 168.7C116.7 168.7 58.3 153.3 29.2 145.7L0 138Z" fill="#f1f4ee"></path><path d="M0 241L29.2 241C58.3 241 116.7 241 174.8 241C233 241 291 241 349.2 241C407.3 241 465.7 241 523.8 241C582 241 640 241 698.2 241C756.3 241 814.7 241 872.8 241C931 241 989 241 1047.2 241C1105.3 241 1163.7 241 1221.8 241C1280 241 1338 241 1396.2 241C1454.3 241 1512.7 241 1570.8 241C1629 241 1687 241 1745.2 241C1803.3 241 1861.7 241 1890.8 241L1920 241L1920 153L1890.8 161C1861.7 169 1803.3 185 1745.2 182.2C1687 179.3 1629 157.7 1570.8 152C1512.7 146.3 1454.3 156.7 1396.2 166.2C1338 175.7 1280 184.3 1221.8 184.7C1163.7 185 1105.3 177 1047.2 167.5C989 158 931 147 872.8 145.5C814.7 144 756.3 152 698.2 162.3C640 172.7 582 185.3 523.8 190.5C465.7 195.7 407.3 193.3 349.2 195.3C291 197.3 233 203.7 174.8 203.7C116.7 203.7 58.3 197.3 29.2 194.2L0 191Z" fill="#f4f5ee"></path></svg>