<svg id="visual" viewBox="0 0 1920 120" width="1920" height="120" xmlns="http://www.w3.org/2000/svg" xmlns:xlink="http://www.w3.org/1999/xlink" version="1.1"><path d="M0 75L22.8 76.3C45.7 77.7 91.3 80.3 137 79.3C182.7 78.3 228.3 73.7 274 73.8C319.7 74 365.3 79 411.2 78.2C457 77.3 503 70.7 548.8 69.8C594.7 69 640.3 74 686 75.8C731.7 77.7 777.3 76.3 823 74.8C868.7 73.3 914.3 71.7 960 69.2C1005.7 66.7 1051.3 63.3 1097 66.2C1142.7 69 1188.3 78 1234 81C1279.7 84 1325.3 81 1371.2 76.5C1417 72 1463 66 1508.8 65C1554.7 64 1600.3 68 1646 70.5C1691.7 73 1737.3 74 1783 73.5C1828.7 73 1874.3 71 1897.2 70L1920 69L1920 0L1897.2 0C1874.3 0 1828.7 0 1783 0C1737.3 0 1691.7 0 1646 0C1600.3 0 1554.7 0 1508.8 0C1463 0 1417 0 1371.2 0C1325.3 0 1279.7 0 1234 0C1188.3 0 1142.7 0 1097 0C1051.3 0 1005.7 0 960 0C914.3 0 868.7 0 823 0C777.3 0 731.7 0 686 0C640.3 0 594.7 0 548.8 0C503 0 457 0 411.2 0C365.3 0 319.7 0 274 0C228.3 0 182.7 0 137 0C91.3 0 45.7 0 22.8 0L0 0Z" fill="#f4f5f0"></path><path d="M0 46L22.8 48.5C45.7 51 91.3 56 137 58.5C182.7 61 228.3 61 274 60.5C319.7 60 365.3 59 411.2 58.7C457 58.3 503 58.7 548.8 56.5C594.7 54.3 640.3 49.7 686 49.8C731.7 50 777.3 55 823 55.8C868.7 56.7 914.3 53.3 960 51.5C1005.7 49.7 1051.3 49.3 1097 50C1142.7 50.7 1188.3 52.3 1234 55.3C1279.7 58.3 1325.3 62.7 1371.2 64.3C1417 66 1463 65 1508.8 62.7C1554.7 60.3 1600.3 56.7 1646 55C1691.7 53.3 1737.3 53.7 1783 53C1828.7 52.3 1874.3 50.7 1897.2 49.8L1920 49L1920 0L1897.2 0C1874.3 0 1828.7 0 1783 0C1737.3 0 1691.7 0 1646 0C1600.3 0 1554.7 0 1508.8 0C1463 0 1417 0 1371.2 0C1325.3 0 1279.7 0 1234 0C1188.3 0 1142.7 0 1097 0C1051.3 0 1005.7 0 960 0C914.3 0 868.7 0 823 0C777.3 0 731.7 0 686 0C640.3 0 594.7 0 548.8 0C503 0 457 0 411.2 0C365.3 0 319.7 0 274 0C228.3 0 182.7 0 137 0C91.3 0 45.7 0 22.8 0L0 0Z" fill="#f1f4ef"></path><path d="M0 47L22.8 46.8C45.7 46.7 91.3 46.3 137 43.8C182.7 41.3 228.3 36.7 274 36.3C319.7 36 365.3 40 411.2 41C457 42 503 40 548.8 38.2C594.7 36.3 640.3 34.7 686 34.3C731.7 34 777.3 35 823 37C868.7 39 914.3 42 960 41.3C1005.7 40.7 1051.3 36.3 1097 34.3C1142.7 32.3 1188.3 32.7 1234 33.5C1279.7 34.3 1325.3 35.7 1371.2 37C1417 38.3 1463 39.7 1508.8 40.7C1554.7 41.7 1600.3 42.3 1646 42.5C1691.7 42.7 1737.3 42.3 1783 43C1828.7 43.7 1874.3 45.3 1897.2 46.2L1920 47L1920 0L1897.2 0C1874.3 0 1828.7 0 1783 0C1737.3 0 1691.7 0 1646 0C1600.3 0 1554.7 0 1508.8 0C1463 0 1417 0 1371.2 0C1325.3 0 1279.7 0 1234 0C1188.3 0 1142.7 0 1097 0C1051.3 0 1005.7 0 960 0C914.3 0 868.7 0 823 0C777.3 0 731.7 0 686 0C640.3 0 594.7 0 548.8 0C503 0 457 0 411.2 0C365.3 0 319.7 0 274 0C228.3 0 182.7 0 137 0C91.3 0 45.7 0 22.8 0L0 0Z" fill="#eff4ef"></path><path d="M0 28L22.8 27.7C45.7 27.3 91.3 26.7 137 25.7C182.7 24.7 228.3 23.3 274 21.8C319.7 20.3 365.3 18.7 411.2 18.7C457 18.7 503 20.3 548.8 22.2C594.7 24 640.3 26 686 26.2C731.7 26.3 777.3 24.7 823 24.3C868.7 24 914.3 25 960 24.5C1005.7 24 1051.3 22 1097 22.7C1142.7 23.3 1188.3 26.7 1234 28.2C1279.7 29.7 1325.3 29.3 1371.2 28.8C1417 28.3 1463 27.7 1508.8 27.5C1554.7 27.3 1600.3 27.7 1646 26.8C1691.7 26 1737.3 24 1783 22.5C1828.7 21 1874.3 20 1897.2 19.5L1920 19L1920 0L1897.2 0C1874.3 0 1828.7 0 1783 0C1737.3 0 1691.7 0 1646 0C1600.3 0 1554.7 0 1508.8 0C1463 0 1417 0 1371.2 0C1325.3 0 1279.7 0 1234 0C1188.3 0 1142.7 0 1097 0C1051.3 0 1005.7 0 960 0C914.3 0 868.7 0 823 0C777.3 0 731.7 0 686 0C640.3 0 594.7 0 548.8 0C503 0 457 0 411.2 0C365.3 0 319.7 0 274 0C228.3 0 182.7 0 137 0C91.3 0 45.7 0 22.8 0L0 0Z" fill="#ecf3ee"></path></svg>