<svg id="visual" viewBox="0 0 1920 250" width="1920" height="250" xmlns="http://www.w3.org/2000/svg" xmlns:xlink="http://www.w3.org/1999/xlink" version="1.1"><path d="M0 69L21.3 67.2C42.7 65.3 85.3 61.7 128 57.3C170.7 53 213.3 48 256 46.3C298.7 44.7 341.3 46.3 384 49.7C426.7 53 469.3 58 512 65C554.7 72 597.3 81 640 79.3C682.7 77.7 725.3 65.3 768 58C810.7 50.7 853.3 48.3 896 55.7C938.7 63 981.3 80 1024 80.7C1066.7 81.3 1109.3 65.7 1152 55.2C1194.7 44.7 1237.3 39.3 1280 41.5C1322.7 43.7 1365.3 53.3 1408 57.5C1450.7 61.7 1493.3 60.3 1536 55.8C1578.7 51.3 1621.3 43.7 1664 52.5C1706.7 61.3 1749.3 86.7 1792 91.7C1834.7 96.7 1877.3 81.3 1898.7 73.7L1920 66L1920 251L1898.7 251C1877.3 251 1834.7 251 1792 251C1749.3 251 1706.7 251 1664 251C1621.3 251 1578.7 251 1536 251C1493.3 251 1450.7 251 1408 251C1365.3 251 1322.7 251 1280 251C1237.3 251 1194.7 251 1152 251C1109.3 251 1066.7 251 1024 251C981.3 251 938.7 251 896 251C853.3 251 810.7 251 768 251C725.3 251 682.7 251 640 251C597.3 251 554.7 251 512 251C469.3 251 426.7 251 384 251C341.3 251 298.7 251 256 251C213.3 251 170.7 251 128 251C85.3 251 42.7 251 21.3 251L0 251Z" fill="#fefdfd"></path><path d="M0 135L21.3 128.7C42.7 122.3 85.3 109.7 128 104C170.7 98.3 213.3 99.7 256 107C298.7 114.3 341.3 127.7 384 125.2C426.7 122.7 469.3 104.3 512 100.3C554.7 96.3 597.3 106.7 640 111C682.7 115.3 725.3 113.7 768 114C810.7 114.3 853.3 116.7 896 124.2C938.7 131.7 981.3 144.3 1024 144C1066.7 143.7 1109.3 130.3 1152 121.2C1194.7 112 1237.3 107 1280 105.2C1322.7 103.3 1365.3 104.7 1408 102.5C1450.7 100.3 1493.3 94.7 1536 99.5C1578.7 104.3 1621.3 119.7 1664 123C1706.7 126.3 1749.3 117.7 1792 121.3C1834.7 125 1877.3 141 1898.7 149L1920 157L1920 251L1898.7 251C1877.3 251 1834.7 251 1792 251C1749.3 251 1706.7 251 1664 251C1621.3 251 1578.7 251 1536 251C1493.3 251 1450.7 251 1408 251C1365.3 251 1322.7 251 1280 251C1237.3 251 1194.7 251 1152 251C1109.3 251 1066.7 251 1024 251C981.3 251 938.7 251 896 251C853.3 251 810.7 251 768 251C725.3 251 682.7 251 640 251C597.3 251 554.7 251 512 251C469.3 251 426.7 251 384 251C341.3 251 298.7 251 256 251C213.3 251 170.7 251 128 251C85.3 251 42.7 251 21.3 251L0 251Z" fill="#fcf9f7"></path><path d="M0 174L21.3 177C42.7 180 85.3 186 128 185.5C170.7 185 213.3 178 256 167.7C298.7 157.3 341.3 143.7 384 147.2C426.7 150.7 469.3 171.3 512 171C554.7 170.7 597.3 149.3 640 139.2C682.7 129 725.3 130 768 130.8C810.7 131.7 853.3 132.3 896 139.5C938.7 146.7 981.3 160.3 1024 169.2C1066.7 178 1109.3 182 1152 177.5C1194.7 173 1237.3 160 1280 152.3C1322.7 144.7 1365.3 142.3 1408 145.2C1450.7 148 1493.3 156 1536 161.7C1578.7 167.3 1621.3 170.7 1664 169.8C1706.7 169 1749.3 164 1792 161.7C1834.7 159.3 1877.3 159.7 1898.7 159.8L1920 160L1920 251L1898.7 251C1877.3 251 1834.7 251 1792 251C1749.3 251 1706.7 251 1664 251C1621.3 251 1578.7 251 1536 251C1493.3 251 1450.7 251 1408 251C1365.3 251 1322.7 251 1280 251C1237.3 251 1194.7 251 1152 251C1109.3 251 1066.7 251 1024 251C981.3 251 938.7 251 896 251C853.3 251 810.7 251 768 251C725.3 251 682.7 251 640 251C597.3 251 554.7 251 512 251C469.3 251 426.7 251 384 251C341.3 251 298.7 251 256 251C213.3 251 170.7 251 128 251C85.3 251 42.7 251 21.3 251L0 251Z" fill="#f6f5f0"></path><path d="M0 220L21.3 221.2C42.7 222.3 85.3 224.7 128 221.2C170.7 217.7 213.3 208.3 256 204.8C298.7 201.3 341.3 203.7 384 205.2C426.7 206.7 469.3 207.3 512 202C554.7 196.7 597.3 185.3 640 188.2C682.7 191 725.3 208 768 216.3C810.7 224.7 853.3 224.3 896 217.3C938.7 210.3 981.3 196.7 1024 191.3C1066.7 186 1109.3 189 1152 191.8C1194.7 194.7 1237.3 197.3 1280 201.2C1322.7 205 1365.3 210 1408 205.2C1450.7 200.3 1493.3 185.7 1536 179.3C1578.7 173 1621.3 175 1664 183.3C1706.7 191.7 1749.3 206.3 1792 213.2C1834.7 220 1877.3 219 1898.7 218.5L1920 218L1920 251L1898.7 251C1877.3 251 1834.7 251 1792 251C1749.3 251 1706.7 251 1664 251C1621.3 251 1578.7 251 1536 251C1493.3 251 1450.7 251 1408 251C1365.3 251 1322.7 251 1280 251C1237.3 251 1194.7 251 1152 251C1109.3 251 1066.7 251 1024 251C981.3 251 938.7 251 896 251C853.3 251 810.7 251 768 251C725.3 251 682.7 251 640 251C597.3 251 554.7 251 512 251C469.3 251 426.7 251 384 251C341.3 251 298.7 251 256 251C213.3 251 170.7 251 128 251C85.3 251 42.7 251 21.3 251L0 251Z" fill="#ecf3ed"></path></svg>