<svg width="160" height="160" viewBox="0 0 160 160" fill="none" xmlns="http://www.w3.org/2000/svg">
<circle cx="79.9998" cy="80" r="77.1429" fill="#FFF3EA"/>
<path d="M88.8062 82.884C81.6862 68.6302 48.8333 65.4718 42.3619 84.3748C31.1015 117.267 63.2177 121.454 73.1934 113.966C85.3505 115.909 110.288 117.454 112.78 108.091C115.895 96.388 115.005 57.6775 102.1 45.0741C96.1075 39.224 81.6292 36.0748 78.0692 41.023C74.0037 46.6736 69.614 56.3268 79.4042 55.8767M80.2942 48.2246C78.6625 51.5255 77.2681 58.0373 84.7443 57.6772M85.6343 49.1249C84.0026 52.7258 82.6972 59.6577 90.5294 58.5774M90.9744 50.4752C88.7494 55.7266 87.6813 63.7988 101.21 54.0762M93.6444 58.5774C94.2378 63.2207 97.2045 66.2295 90.9744 77.0324C87.7949 82.5456 86.9693 90.9862 92.3094 97.7381" stroke="#4D932B" stroke-width="3" stroke-linecap="round" stroke-linejoin="round"/>
<path d="M55.7026 82.7118C58.9071 80.3676 62.8642 81.4684 65.0005 84.1366C67.1368 81.4685 71.0939 80.3804 74.2983 82.7118C75.9975 83.9553 77.0654 86.0539 77.1382 88.2557C77.2958 93.2811 73.1326 97.3093 66.7603 103.474L66.6265 103.604C65.704 104.511 64.2842 104.511 63.3618 103.617L63.2397 103.501C56.8672 97.3226 52.6919 93.294 52.8618 88.2684C52.9346 86.0536 54.0033 83.9552 55.7026 82.7118ZM70.4624 84.0204C68.9711 84.0204 67.5108 84.8362 66.6606 86.0673C66.2727 86.6289 65.685 87.077 65.0024 87.077C64.3235 87.077 63.7386 86.6333 63.3521 86.0751C62.4965 84.8394 61.0322 84.0204 59.5376 84.0204C57.1101 84.0206 55.2896 85.9632 55.2896 88.5536C55.2897 92.2967 59.101 95.988 64.8784 101.57L65.0005 101.7L65.1216 101.57C70.8991 95.9879 74.7103 92.2967 74.7104 88.5536C74.7104 85.9631 72.89 84.0204 70.4624 84.0204Z" fill="#D66639"/>
<path d="M55.7026 82.7118C58.9071 80.3676 62.8642 81.4684 65.0005 84.1366C67.1368 81.4685 71.0939 80.3804 74.2983 82.7118C75.9975 83.9553 77.0654 86.0539 77.1382 88.2557C77.2958 93.2811 73.1326 97.3093 66.7603 103.474L66.6265 103.604C65.704 104.511 64.2842 104.511 63.3618 103.617L63.2397 103.501C56.8672 97.3226 52.6919 93.294 52.8618 88.2684C52.9346 86.0536 54.0033 83.9552 55.7026 82.7118ZM70.4624 84.0204C68.9711 84.0204 67.5108 84.8362 66.6606 86.0673C66.2727 86.6289 65.685 87.077 65.0024 87.077C64.3235 87.077 63.7386 86.6333 63.3521 86.0751C62.4965 84.8394 61.0322 84.0204 59.5376 84.0204C57.1101 84.0206 55.2896 85.9632 55.2896 88.5536C55.2897 92.2967 59.101 95.988 64.8784 101.57L65.0005 101.7L65.1216 101.57C70.8991 95.9879 74.7103 92.2967 74.7104 88.5536C74.7104 85.9631 72.89 84.0204 70.4624 84.0204Z" stroke="#ECF3ED"/>
<path d="M44.1022 60.6063L50.0684 66.7494M55.8977 55.6108L57.3812 64.3087M66.3372 55.0237L65.0765 64.1897" stroke="#4D932B" stroke-width="2.85714" stroke-linecap="round" stroke-linejoin="round"/>
</svg>
