<svg width="160" height="160" viewBox="0 0 160 160" fill="none" xmlns="http://www.w3.org/2000/svg">
<circle cx="80.0003" cy="80" r="77.1429" fill="#FFF3EA"/>
<path d="M95.7144 112.857C97.8572 115.714 103.378 117.774 107.143 112.857" stroke="#4D932B" stroke-width="2.85714" stroke-linecap="round" stroke-linejoin="round"/>
<path d="M59.7798 57.0191L63.3202 61.1495L72.1711 49.9384" stroke="#4D932B" stroke-width="3" stroke-linecap="round" stroke-linejoin="round"/>
<path d="M80.7141 118.571H53.2918C50.6847 118.571 48.5713 116.458 48.5713 113.851V47.5777C48.5713 44.9706 50.6847 42.8572 53.2918 42.8572H105.279C107.886 42.8572 110 44.9706 110 47.5777V87.8572" stroke="#D66639" stroke-width="3" stroke-linecap="round"/>
<circle cx="101.428" cy="108.571" r="14.2857" stroke="#D66639" stroke-width="3" stroke-linecap="round"/>
<path d="M70.9915 58.1976V64.0982C70.9915 65.4017 69.9348 66.4584 68.6313 66.4584H58.0102C56.7066 66.4584 55.6499 65.4017 55.6499 64.0982V53.4771C55.6499 52.1735 56.7066 51.1168 58.0102 51.1168H66.271" stroke="#D66639" stroke-width="3" stroke-linecap="round"/>
<rect x="55.6499" y="75.901" width="15.3416" height="15.3416" rx="2.36025" stroke="#D66639" stroke-width="3"/>
<path d="M79.25 54.6575H101.672" stroke="#D66639" stroke-width="3" stroke-linecap="round"/>
<path d="M79.25 80.6201H101.672" stroke="#D66639" stroke-width="3" stroke-linecap="round"/>
<path d="M79.25 61.7386H93.4115" stroke="#D66639" stroke-width="3" stroke-linecap="round"/>
<path d="M79.25 87.7013H93.4115" stroke="#D66639" stroke-width="3" stroke-linecap="round"/>
<circle cx="96.4285" cy="105" r="2.14286" fill="#4D932B"/>
<circle cx="106.429" cy="105" r="2.14286" fill="#4D932B"/>
</svg>
