<svg width="160" height="160" viewBox="0 0 160 160" fill="none" xmlns="http://www.w3.org/2000/svg">
<circle cx="80" cy="80" r="77.1429" fill="#FFF3EA"/>
<path d="M95.7144 112.857C97.8572 115.714 103.378 117.774 107.143 112.857" stroke="#4D932B" stroke-width="2.85714" stroke-linecap="round" stroke-linejoin="round"/>
<path d="M59.78 57.019L63.3204 61.1495L72.1713 49.9383" stroke="#4D932B" stroke-width="3" stroke-linecap="round" stroke-linejoin="round"/>
<path d="M80.7144 118.571H53.292C50.685 118.571 48.5715 116.458 48.5715 113.851V47.5776C48.5715 44.9706 50.685 42.8571 53.292 42.8571H105.28C107.887 42.8571 110 44.9706 110 47.5776V87.8571" stroke="#D66639" stroke-width="3" stroke-linecap="round"/>
<circle cx="101.429" cy="108.571" r="14.2857" stroke="#D66639" stroke-width="3" stroke-linecap="round"/>
<path d="M70.9918 58.1976V64.0982C70.9918 65.4017 69.9351 66.4584 68.6315 66.4584H58.0104C56.7069 66.4584 55.6501 65.4017 55.6501 64.0982V53.4771C55.6501 52.1735 56.7069 51.1168 58.0104 51.1168H66.2713" stroke="#D66639" stroke-width="3" stroke-linecap="round"/>
<rect x="55.6501" y="75.9009" width="15.3416" height="15.3416" rx="2.36025" stroke="#D66639" stroke-width="3"/>
<path d="M79.2505 54.6574H101.673" stroke="#D66639" stroke-width="3" stroke-linecap="round"/>
<path d="M79.2505 80.6201H101.673" stroke="#D66639" stroke-width="3" stroke-linecap="round"/>
<path d="M79.2505 61.7386H93.412" stroke="#D66639" stroke-width="3" stroke-linecap="round"/>
<path d="M79.2505 87.7013H93.412" stroke="#D66639" stroke-width="3" stroke-linecap="round"/>
<circle cx="96.4285" cy="105" r="2.14286" fill="#4D932B"/>
<circle cx="106.429" cy="105" r="2.14286" fill="#4D932B"/>
</svg>
