<svg width="160" height="160" viewBox="0 0 160 160" fill="none" xmlns="http://www.w3.org/2000/svg">
<circle cx="80" cy="80" r="77.1429" fill="#FFF3EA"/>
<path d="M123.494 48.9762C126.734 49.6192 129.381 50.5026 131.297 51.387C131.711 51.578 131.965 51.9973 131.965 52.4529V119.922C131.965 120.744 131.156 121.324 130.372 121.078C105.109 113.139 88.1381 113.786 81.9886 119.154C81.5439 119.542 80.8955 119.63 80.3877 119.329C64.1996 109.736 42.2346 116.638 30.7483 120.961C29.9528 121.26 29.1079 120.672 29.1079 119.822V52.4169C29.1079 51.9803 29.342 51.5754 29.7284 51.3719C32.15 50.0963 34.7959 49.2142 37.5785 48.654" stroke="#D66639" stroke-width="3"/>
<path d="M37.5779 110.725V44.2801C37.5779 43.8755 37.78 43.4946 38.1238 43.2813C50.9328 35.3368 71.2263 42.9335 80.5014 48.1098C80.899 48.3317 81.387 48.3117 81.7717 48.0681C100.27 36.3571 116.462 39.8023 122.899 43.2933C123.272 43.4959 123.494 43.8925 123.494 44.3176V110.848C123.494 111.697 122.637 112.28 121.836 112C101.432 104.873 87.5586 112.795 82.1445 118.679C81.61 119.26 80.6636 119.261 80.1442 118.666C68.1934 104.99 49.0584 108.031 39.3076 111.874C38.488 112.197 37.5779 111.606 37.5779 110.725Z" stroke="#D66639" stroke-width="3"/>
<path d="M48.5718 69.9987H70.9942" stroke="#D66639" stroke-width="3" stroke-linecap="round"/>
<path d="M48.5718 78.5701H62.7333" stroke="#D66639" stroke-width="3" stroke-linecap="round"/>
<path d="M81.1433 119.868V48.4733" stroke="#D66639" stroke-width="3"/>
<path d="M102.669 57.4068C103.301 55.222 105.85 54.2507 107.776 55.4605C109.167 56.3347 109.741 58.0746 109.142 59.6047L108.276 61.8164C107.938 62.6834 108.813 63.5292 109.668 63.1601L109.741 63.1287L109.816 63.1059L110.439 62.9153C113.463 61.9909 115.926 65.4441 114.068 68.0019C113.807 68.3608 113.475 68.6637 113.095 68.8916L108.916 71.3916C111.152 73.8715 111.853 77.5977 110.205 80.8795L102.471 96.2759L102.365 96.4741C101.244 98.4894 98.932 99.5495 96.6596 99.0644C94.3872 98.5791 92.7096 96.6672 92.5093 94.3697L92.4952 94.146L91.7227 76.9334C91.5516 73.1157 93.8989 69.8987 97.1493 68.6445L95.1825 64.6437C94.4733 63.2009 94.9554 61.4558 96.3045 60.5814C97.8558 59.5761 99.9267 60.1122 100.812 61.7176C100.858 61.8004 100.909 61.8403 100.956 61.8631C101.009 61.8892 101.08 61.9038 101.156 61.8958C101.232 61.8876 101.295 61.8595 101.337 61.8257C101.373 61.797 101.412 61.7511 101.438 61.6625L102.669 57.4068ZM101.357 71.0647C97.7622 70.2972 94.4123 73.134 94.5769 76.8058L94.6897 79.3174L94.7802 78.8933L99.5143 79.9041C100.286 80.0691 100.777 80.8281 100.612 81.5995C100.448 82.3709 99.6891 82.863 98.9177 82.6986L94.8015 81.8197L95.3484 94.0182C95.3976 95.1155 96.1819 96.0415 97.256 96.2709C98.3302 96.5002 99.4242 95.9752 99.9173 94.9938L102.601 89.6502C102.531 89.6459 102.459 89.6379 102.388 89.6227L98.8383 88.8648C98.0668 88.7001 97.5747 87.9408 97.7395 87.1693C97.9044 86.3979 98.6636 85.9057 99.435 86.0704L102.985 86.8283C103.308 86.8974 103.581 87.0723 103.778 87.3073L107.651 79.5974C107.878 79.1466 108.034 78.6824 108.132 78.2162C107.873 78.3249 107.579 78.3596 107.283 78.2965L102.549 77.2857C101.778 77.1208 101.286 76.3615 101.45 75.5902C101.615 74.8187 102.374 74.3268 103.146 74.4913L107.88 75.5021C107.932 75.5134 107.984 75.5274 108.034 75.5441C107.489 73.6375 105.95 72.0456 103.807 71.5879L101.357 71.0647ZM106.256 57.88C105.938 57.6806 105.518 57.841 105.413 58.2014L104.182 62.4562C103.384 65.2149 99.6709 65.5646 98.3096 63.0975C98.2175 62.9305 98.006 62.8838 97.8586 62.9793C97.7243 63.0663 97.6757 63.24 97.7463 63.3837L100.057 68.0831C100.596 68.0762 101.146 68.1188 101.7 68.22L101.953 68.2703L104.404 68.7935C105.144 68.9515 105.834 69.2023 106.472 69.5246L111.627 66.4403C111.677 66.4101 111.721 66.3696 111.756 66.322C112.003 65.9829 111.676 65.5249 111.275 65.6471L110.69 65.8257C107.539 67.0834 104.366 63.9693 105.616 60.7751L106.481 58.5633C106.58 58.3111 106.485 58.0243 106.256 57.88Z" fill="#D66639"/>
</svg>
