<svg width="24" height="24" viewBox="0 0 24 24" fill="none" xmlns="http://www.w3.org/2000/svg">
<path d="M17.5319 1.44768C17.8369 0.987475 18.4573 0.861662 18.9176 1.16643C19.378 1.47155 19.504 2.0928 19.1989 2.55315L17.4284 5.22307C17.6938 5.49111 17.9379 5.77994 18.1608 6.08537C18.5851 5.79577 19.206 5.47014 19.9039 5.29338C20.695 5.09307 21.7296 5.05229 22.6539 5.66838C22.9354 5.85605 23.2044 6.13431 23.3297 6.52776C23.4558 6.92445 23.3918 7.29831 23.275 7.58733C23.0644 8.10826 22.6132 8.53085 22.234 8.83244C21.4555 9.45165 20.3717 10.0201 19.5953 10.3715C19.5961 10.4144 19.5993 10.4574 19.5993 10.5004V15.5004C19.5992 19.6425 16.2413 23.0004 12.0993 23.0004C7.95725 23.0003 4.59933 19.6424 4.59925 15.5004V10.5004C4.59925 10.4315 4.60229 10.3628 4.60414 10.2944C4.56675 10.2828 4.52946 10.2696 4.49281 10.2533C3.71213 9.90637 2.57363 9.31585 1.76429 8.67229C1.38518 8.37077 0.933967 7.94795 0.723278 7.42717C0.606441 7.13813 0.542447 6.76436 0.66859 6.3676C0.79387 5.97389 1.0628 5.69496 1.34437 5.50725C2.31569 4.86007 3.54268 4.99465 4.39711 5.2133C5.05713 5.38224 5.69188 5.65246 6.16273 5.91936C6.27085 5.77944 6.38308 5.64297 6.50062 5.51115L4.53968 2.55315C4.23457 2.0928 4.36059 1.47155 4.82093 1.16643C5.28119 0.861377 5.90149 0.987561 6.20668 1.44768L8.03089 4.20061C9.20297 3.44208 10.5992 3.00045 12.0993 3.00041C13.4617 3.00041 14.7383 3.36544 15.8395 4.00041L17.5319 1.44768ZM17.0553 17.8871C14.9979 15.9999 12.9517 15.6533 11.2096 15.9369C9.53212 16.2101 8.07369 17.0803 7.14515 17.891C8.03467 19.7309 9.91861 21.0003 12.0993 21.0004C14.2815 21.0004 16.1665 19.7291 17.0553 17.8871ZM10.5993 17.0004C11.1515 17.0004 11.5993 17.4481 11.5993 18.0004C11.5992 18.5526 11.1515 19.0004 10.5993 19.0004C10.0471 19.0003 9.59933 18.5526 9.59925 18.0004C9.59925 17.4482 10.047 17.0005 10.5993 17.0004ZM13.5993 17.0004C14.1515 17.0004 14.5993 17.4481 14.5993 18.0004C14.5992 18.5526 14.1515 19.0004 13.5993 19.0004C13.0471 19.0003 12.5993 18.5526 12.5993 18.0004C12.5993 17.4482 13.047 17.0005 13.5993 17.0004ZM12.0993 5.00041C9.06177 5.00051 6.59925 7.4629 6.59925 10.5004V15.5004C6.59926 15.5918 6.60168 15.6826 6.60609 15.7729C7.72306 14.9737 9.20228 14.2379 10.8883 13.9633C12.9765 13.6234 15.3242 14.0036 17.5934 15.7299C17.5965 15.6538 17.5993 15.5773 17.5993 15.5004V10.5004C17.5993 7.46285 15.1368 5.00041 12.0993 5.00041ZM8.59925 9.00041C9.15154 9.00041 9.59925 9.44813 9.59925 10.0004C9.59918 10.5526 9.15149 11.0004 8.59925 11.0004C8.0471 11.0003 7.59933 10.5526 7.59925 10.0004C7.59925 9.44819 8.04705 9.00051 8.59925 9.00041ZM15.5993 9.00041C16.1515 9.00041 16.5993 9.44813 16.5993 10.0004C16.5992 10.5526 16.1515 11.0004 15.5993 11.0004C15.0471 11.0003 14.5993 10.5526 14.5993 10.0004C14.5993 9.44819 15.047 9.00051 15.5993 9.00041ZM21.0993 7.17326C20.8966 7.14701 20.6621 7.1643 20.3952 7.23186C19.9043 7.35619 19.4467 7.61434 19.1989 7.80022C19.1725 7.81997 19.1454 7.83813 19.1178 7.8549C19.1745 8.00511 19.227 8.15732 19.2741 8.31194C19.8752 8.01111 20.5285 7.63314 20.9889 7.26701C21.0287 7.23532 21.0646 7.20286 21.0993 7.17326ZM2.92933 7.0385C2.95499 7.05998 2.98012 7.08434 3.00843 7.10686C3.52452 7.51729 4.28527 7.93862 4.94105 8.25334C5.00542 8.04808 5.07966 7.84707 5.16078 7.64983C4.8698 7.4872 4.409 7.28083 3.90101 7.1508C3.50575 7.04968 3.18048 7.02068 2.92933 7.0385Z" fill="#F86709"/>
</svg>
