<svg width="24" height="24" viewBox="0 0 24 24" fill="none" xmlns="http://www.w3.org/2000/svg">
<path fill-rule="evenodd" clip-rule="evenodd" d="M9.06543 4.59939C9.33277 4.47038 9.64383 4.46679 9.91406 4.58962L15.4141 7.08962C15.445 7.10371 15.4751 7.11878 15.5039 7.13552C17.0304 7.36692 18.4687 7.88537 19.6377 8.61697C21.2293 9.61316 22.5 11.1318 22.5 12.9998C22.4999 14.8677 21.2293 16.3864 19.6377 17.3826C18.0212 18.3942 15.8901 18.9997 13.7227 18.9998C11.5507 18.9998 9.54007 18.3916 8.0459 17.3572C6.97396 16.615 6.12935 15.6169 5.73828 14.4451L2.59961 16.7996C2.29665 17.0267 1.8914 17.0636 1.55273 16.8943C1.21402 16.725 1.00008 16.3785 1 15.9998L1 9.99978C1 9.62104 1.214 9.27466 1.55273 9.10525C1.89146 8.93588 2.29661 8.97282 2.59961 9.19997L5.73828 11.5535C6.07326 10.5501 6.74105 9.67508 7.59961 8.97829L8.53027 5.25759L8.5625 5.15115C8.65197 4.91052 8.8317 4.71223 9.06543 4.59939ZM13.0713 9.02126C11.5243 9.1272 10.1684 9.60574 9.18457 10.2869C8.06111 11.0648 7.5 12.0401 7.5 12.9998C7.50009 13.9595 8.06113 14.9348 9.18457 15.7127C10.2494 16.4498 11.7501 16.9477 13.457 16.9949C12.1436 14.8408 11.8138 12.9508 12.0908 11.3689C12.255 10.4315 12.6241 9.64767 13.0713 9.02126ZM15.7109 9.20193C15.6658 9.24752 15.6166 9.29056 15.5615 9.3279C14.9885 9.71658 14.2698 10.5194 14.0605 11.7136C13.8589 12.8652 14.1029 14.5505 15.7246 16.7937C16.7952 16.5728 17.7799 16.1856 18.5762 15.6873C19.8759 14.8739 20.4999 13.893 20.5 12.9998C20.5 12.1065 19.876 11.1257 18.5762 10.3123C17.7765 9.81181 16.7869 9.4224 15.7109 9.20193ZM3 14.0008L4.33398 12.9998L3 11.9988V14.0008ZM18 10.9998C18.5523 10.9998 19 11.4475 19 11.9998C18.9999 12.552 18.5522 12.9998 18 12.9998C17.4478 12.9998 17.0001 12.552 17 11.9998C17 11.4475 17.4477 10.9998 18 10.9998ZM9.99316 7.64333C10.3414 7.51526 10.7032 7.40553 11.0762 7.31423L10.1777 6.90603L9.99316 7.64333Z" fill="#F86709"/>
</svg>
