<svg width="160" height="160" viewBox="0 0 160 160" fill="none" xmlns="http://www.w3.org/2000/svg">
<circle cx="80.0003" cy="80" r="77.1429" fill="#FFF3EA"/>
<path d="M123.494 48.9762C126.734 49.6192 129.381 50.5026 131.297 51.387C131.711 51.578 131.965 51.9973 131.965 52.4529V119.922C131.965 120.744 131.156 121.324 130.372 121.078C105.109 113.139 88.1381 113.786 81.9886 119.154C81.5439 119.542 80.8955 119.63 80.3877 119.329C64.1996 109.736 42.2346 116.638 30.7483 120.961C29.9528 121.26 29.1079 120.672 29.1079 119.822V52.4169C29.1079 51.9803 29.342 51.5754 29.7284 51.3719C32.15 50.0963 34.7959 49.2142 37.5785 48.654" stroke="#D66639" stroke-width="3"/>
<path d="M37.5776 110.725V44.2801C37.5776 43.8755 37.7798 43.4946 38.1236 43.2813C50.9326 35.3368 71.226 42.9335 80.5012 48.1098C80.8988 48.3317 81.3867 48.3117 81.7714 48.0681C100.269 36.3571 116.461 39.8023 122.899 43.2933C123.272 43.4959 123.494 43.8925 123.494 44.3176V110.848C123.494 111.697 122.636 112.28 121.835 112C101.432 104.873 87.5583 112.795 82.1443 118.679C81.6097 119.26 80.6634 119.261 80.1439 118.666C68.1932 104.99 49.0582 108.031 39.3074 111.874C38.4878 112.197 37.5776 111.606 37.5776 110.725Z" stroke="#D66639" stroke-width="3"/>
<path d="M48.5718 69.9987H70.9942" stroke="#4D932B" stroke-width="3" stroke-linecap="round"/>
<path d="M48.5718 78.5701H62.7333" stroke="#4D932B" stroke-width="3" stroke-linecap="round"/>
<path d="M81.1436 119.868V48.4733" stroke="#D66639" stroke-width="3"/>
<path d="M99.5186 70.2262L96.464 64.0132C96.074 63.22 96.3389 62.2604 97.0807 61.7797C97.9301 61.2292 99.0715 61.5208 99.5603 62.4071C100.32 63.7843 102.373 63.5696 102.81 62.0588L104.041 57.8038C104.409 56.531 105.894 55.9652 107.015 56.6699C107.826 57.1791 108.16 58.1925 107.811 59.0839L106.946 61.2953C106.144 63.3446 108.214 65.3437 110.234 64.4712L110.857 64.2808C112.569 63.7571 113.964 65.713 112.911 67.1616C112.763 67.3649 112.576 67.5363 112.36 67.6654L105.83 71.5738" stroke="#4D932B" stroke-width="2.85714"/>
<path d="M101.655 69.6676L104.105 70.1909C108.615 71.1537 110.998 76.1184 108.928 80.2387L101.193 95.6349C100.408 97.1973 98.6674 98.0334 96.9574 97.6683C95.2475 97.3031 93.9999 95.829 93.9215 94.0823L93.149 76.8697C92.9425 72.2634 97.1455 68.7048 101.655 69.6676Z" stroke="#D66639" stroke-width="2.85714"/>
<path d="M98.9173 82.6986C99.6889 82.8633 100.448 82.3714 100.613 81.5998C100.777 80.8282 100.285 80.0691 99.5139 79.9044L99.2156 81.3015L98.9173 82.6986ZM94.4819 80.2908L94.1836 81.6879L98.9173 82.6986L99.2156 81.3015L99.5139 79.9044L94.7802 78.8937L94.4819 80.2908Z" fill="#D66639"/>
<path d="M99.1362 87.468L102.686 88.226" stroke="#D66639" stroke-width="2.85714" stroke-linecap="round"/>
<path d="M102.848 75.8882L107.581 76.8989" stroke="#D66639" stroke-width="2.85714" stroke-linecap="round"/>
</svg>
