<svg width="160" height="160" viewBox="0 0 160 160" fill="none" xmlns="http://www.w3.org/2000/svg">
<circle cx="79.9998" cy="80" r="77.1429" fill="#FFF3EA"/>
<path d="M88.8063 82.8841C81.6863 68.6302 48.8334 65.4718 42.3621 84.3748C31.1018 117.267 63.2178 121.454 73.1935 113.966C85.3506 115.909 110.288 117.454 112.78 108.091C115.895 96.3881 115.005 57.6775 102.1 45.0741C96.1076 39.224 81.6293 36.0748 78.0693 41.023C74.0038 46.6736 69.6141 56.3268 79.4043 55.8767M80.2943 48.2246C78.6626 51.5255 77.2683 58.0373 84.7444 57.6772M85.6344 49.1249C84.0027 52.7258 82.6973 59.6577 90.5295 58.5774M90.9745 50.4752C88.7494 55.7267 87.6814 63.7989 101.21 54.0762M93.6445 58.5774C94.2378 63.2208 97.2046 66.2295 90.9745 77.0325C87.795 82.5456 86.9694 90.9863 92.3095 97.7381" stroke="#D66639" stroke-width="3" stroke-linecap="round" stroke-linejoin="round"/>
<path d="M74.298 82.7117C71.0935 80.3803 67.1364 81.4683 65.0001 84.1365C62.8638 81.4683 58.9068 80.3673 55.7023 82.7117C54.0029 83.9552 52.9348 86.0535 52.8619 88.2684C52.692 93.2939 56.8675 97.3221 63.2401 103.5L63.3615 103.617C64.284 104.511 65.7041 104.511 66.6266 103.604L66.7602 103.475C73.1327 97.3092 77.2961 93.281 77.1383 88.2554C77.0655 86.0535 75.9973 83.9552 74.298 82.7117ZM65.1215 101.571L65.0001 101.7L64.8787 101.571C59.101 95.988 55.2896 92.2966 55.2896 88.5533C55.2896 85.9628 57.1103 84.0199 59.5379 84.0199C61.0325 84.0199 62.4961 84.8397 63.3516 86.0753C63.7381 86.6336 64.3235 87.0767 65.0025 87.0767C65.6852 87.0767 66.2726 86.6288 66.6605 86.0671C67.5107 84.8361 68.971 84.0199 70.4623 84.0199C72.8899 84.0199 74.7107 85.9628 74.7107 88.5533C74.7107 92.2966 70.8993 95.988 65.1215 101.571Z" fill="#4D932B" stroke="#4D932B" stroke-width="0.5"/>
<path d="M44.1019 60.6063L50.0682 66.7495M55.8975 55.6109L57.381 64.3088M66.337 55.0238L65.0762 64.1898" stroke="#4D932B" stroke-width="2.85714" stroke-linecap="round" stroke-linejoin="round"/>
</svg>

